<svg width="18" height="24" viewBox="0 0 18 24" fill="none" xmlns="http://www.w3.org/2000/svg">
    <path d="M9.00048 0C4.20775 0 0.308594 3.89916 0.308594 8.69184C0.308594 14.6397 8.08698 23.3715 8.41816 23.7404C8.72922 24.0868 9.27231 24.0862 9.58281 23.7404C9.91398 23.3715 17.6924 14.6397 17.6924 8.69184C17.6923 3.89916 13.7932 0 9.00048 0ZM9.00048 22.0185C6.38266 18.909 1.87384 12.774 1.87384 8.69194C1.87384 4.76222 5.07081 1.56525 9.00048 1.56525C12.9302 1.56525 16.1271 4.76222 16.1271 8.69189C16.1271 12.7741 11.619 18.908 9.00048 22.0185Z" fill="#505050"/>
    <path d="M9.00003 5.69189C7.34579 5.69189 6 7.03771 6 8.69195C6 10.3462 7.34582 11.692 9.00003 11.692C10.6542 11.692 12 10.3462 12 8.69195C12 7.03771 10.6542 5.69189 9.00003 5.69189ZM9.00003 10.6182C7.93787 10.6182 7.0738 9.75411 7.0738 8.69195C7.0738 7.62979 7.9379 6.76569 9.00003 6.76569C10.0622 6.76569 10.9263 7.62979 10.9263 8.69195C10.9263 9.75411 10.0622 10.6182 9.00003 10.6182Z" fill="#505050"/>
</svg>