<svg width="36" height="40" viewBox="0 0 36 40" fill="none" xmlns="http://www.w3.org/2000/svg">
<path d="M19.663 9.15242C18.6439 9.86627 17.3756 10.6262 16.832 10.8565C16.3111 11.0637 15.9033 11.294 15.9033 11.34C15.9487 11.5473 18.0323 11.9388 18.8023 11.8467C20.2518 11.7085 20.9539 10.9486 20.9313 9.52085C20.9313 9.01424 21.0445 8.89911 22.041 8.30038C23.5585 7.4023 26.7292 6.5733 28.5411 6.61935C30.7833 6.68844 33.6143 7.60955 35.9923 8.89911C35.3582 7.95496 34.6561 7.05688 33.8861 6.22788C30.0586 5.39889 25.9366 5.7443 22.5167 7.33322C21.9731 7.63257 20.6822 8.43855 19.663 9.15242Z" fill="white"/>
<path d="M18.554 16.153C14.432 16.153 10.8083 18.3407 8.72469 21.6337L8.67939 21.5185C8.29437 20.3901 8.18112 18.3637 8.40761 17.005C8.74734 14.9786 9.94769 13.1134 11.4425 12.3535C12.054 12.031 12.054 12.031 11.8728 11.133C11.4651 9.10655 12.5749 7.03405 15.0662 5.09972C18.4861 2.4285 22.6308 1.16198 26.7527 1.39225C24.5558 0.540224 22.1777 0.0566406 19.6864 0.0566406C8.86057 0.0566406 0.0957031 8.96838 0.0957031 19.9757C0.0957031 29.2328 6.32397 37.0162 14.7265 39.2499C15.9268 39.6644 17.2178 39.8947 18.554 39.8947C18.7578 39.8947 18.939 39.8947 19.1429 39.8717H19.1655C25.3258 39.5492 30.2178 34.368 30.2178 28.0354C30.2178 21.4725 25.0088 16.153 18.554 16.153Z" fill="white"/>
</svg>
