<svg width="151" height="22" viewBox="0 0 151 22" fill="none" xmlns="http://www.w3.org/2000/svg">
<path d="M150.214 5.68959V3.262C150.214 3.18614 150.214 3.18614 150.214 3.11028C150.135 2.95855 149.978 2.88269 149.82 2.88269H149.742C148.798 2.88269 147.933 3.262 147.304 3.94476V3.41373C147.304 3.18614 147.146 3.03442 146.91 3.03442H143.843C143.607 3.03442 143.45 3.18614 143.45 3.41373V13.0482C143.45 13.2758 143.686 13.4275 143.843 13.4275H147.225C147.461 13.4275 147.618 13.2758 147.618 13.0482V6.37235C148.247 6.14476 149.034 5.99304 149.742 6.0689H149.899C149.978 6.0689 149.978 6.0689 150.056 6.0689C150.135 6.0689 150.292 5.91717 150.214 5.68959Z" fill="#323232"/>
<path d="M69.9164 2.95862C66.6919 2.95862 64.8044 4.55172 64.8044 7.88965V8.72413C64.8044 12.1379 66.7706 13.6552 69.9164 13.6552C73.1409 13.6552 75.0284 12.0621 75.0284 8.72413V7.88965C75.107 4.47586 73.1409 2.95862 69.9164 2.95862ZM70.9388 8.72413C70.9388 10.0897 70.5456 10.469 69.9164 10.469C69.2873 10.469 68.894 10.0897 68.894 8.72413V7.88965C68.894 6.52414 69.2873 6.14482 69.9164 6.14482C70.5456 6.14482 70.9388 6.52414 70.9388 7.88965V8.72413Z" fill="#323232"/>
<path d="M136.214 2.95862C133.069 2.95862 131.024 4.55172 131.024 7.88965V8.95172C131.024 12.2138 133.226 13.6552 136.057 13.6552C137.551 13.6552 138.967 13.4276 140.304 12.9724C140.54 12.8965 140.697 12.669 140.697 12.4414V10.6207C140.697 10.3172 140.54 10.3172 140.304 10.3172C139.675 10.3931 137.63 10.469 136.765 10.469C135.507 10.469 135.192 10.2414 135.192 9.33103H140.854C141.09 9.33103 141.248 9.17931 141.248 8.95172V7.88965C141.248 4.85517 139.675 2.95862 136.214 2.95862ZM135.192 7.35862C135.192 6.52413 135.507 5.91724 136.214 5.91724C137.079 5.91724 137.237 6.52413 137.315 7.35862H135.192Z" fill="#323232"/>
<path d="M117.811 3.262C117.811 3.18614 117.811 3.18614 117.811 3.11028C117.733 2.95855 117.576 2.88269 117.418 2.88269H117.34C116.396 2.88269 115.531 3.262 114.902 3.94476V3.41373C114.902 3.18614 114.744 3.03442 114.508 3.03442H111.441C111.205 3.03442 111.048 3.18614 111.048 3.41373V13.0482C111.048 13.2758 111.284 13.4275 111.441 13.4275H114.823C115.059 13.4275 115.216 13.2758 115.216 13.0482V6.37235C115.845 6.14476 116.632 5.99304 117.34 6.0689H117.497C117.576 6.0689 117.576 6.0689 117.654 6.0689C117.811 5.99304 117.969 5.84131 117.89 5.68959L117.811 3.262Z" fill="#323232"/>
<path d="M124.339 2.95862C121.193 2.95862 119.148 4.55172 119.148 7.88965V8.95172C119.148 12.2138 121.351 13.6552 124.182 13.6552C125.676 13.6552 127.092 13.4276 128.429 12.9724C128.665 12.8965 128.822 12.669 128.822 12.4414V10.6207C128.822 10.3172 128.665 10.3172 128.429 10.3172C127.799 10.3931 125.755 10.469 124.89 10.469C123.631 10.469 123.317 10.2414 123.317 9.33103H128.979C129.215 9.33103 129.372 9.17931 129.372 8.95172V7.88965C129.294 4.85517 127.799 2.95862 124.339 2.95862ZM123.317 7.35862C123.317 6.52413 123.631 5.91724 124.339 5.91724C125.204 5.91724 125.44 6.52413 125.44 7.35862H123.317Z" fill="#323232"/>
<path d="M57.8833 2.95862C54.6588 2.95862 52.7713 4.55172 52.7713 7.88965V8.72413C52.7713 12.1379 54.7375 13.6552 57.8833 13.6552C61.1078 13.6552 62.9953 12.0621 62.9953 8.72413V7.88965C62.9953 4.47586 61.1078 2.95862 57.8833 2.95862ZM58.9057 8.72413C58.9057 10.0897 58.5911 10.469 57.8833 10.469C57.1755 10.469 56.8609 10.0897 56.8609 8.72413V7.88965C56.8609 6.52414 57.2541 6.14482 57.8833 6.14482C58.5125 6.14482 58.9057 6.52414 58.9057 7.88965V8.72413Z" fill="#323232"/>
<path d="M93.9031 3.86894C94.6896 3.86894 95.5547 4.02067 95.9479 4.02067C96.0265 4.02067 96.1052 4.02067 96.1052 4.02067C96.2625 3.9448 96.3411 3.86894 96.2625 3.71722V0.986182C96.2625 0.758596 96.1838 0.682734 95.8693 0.606872C95.0828 0.379286 94.2177 0.227563 93.4312 0.303426C89.3417 0.303426 87.4542 2.42756 87.4542 6.29653V7.73791C87.4542 11.6069 89.4203 13.731 93.4312 13.731C94.2963 13.731 95.0828 13.6551 95.8693 13.4276C96.1838 13.3517 96.2625 13.2758 96.2625 13.0483V10.2414C96.2625 9.93791 96.1838 9.86204 95.8693 9.93791C95.1614 10.0138 94.5323 10.0896 93.8245 10.0896C92.6448 10.0896 91.8583 9.86205 91.8583 7.73791V6.29653C91.937 4.24825 92.7234 3.86894 93.9031 3.86894Z" fill="#323232"/>
<path d="M83.3645 3.11043H82.0276V1.13801C82.0276 1.06215 82.0276 1.06215 82.0276 0.986289C81.9489 0.834565 81.7916 0.682842 81.6343 0.758704L78.2526 1.28974C78.0166 1.28974 77.8593 1.44146 77.8593 1.66905V3.11043H76.7583C76.5223 3.11043 76.3651 3.26215 76.3651 3.48974V5.46215C76.3651 5.68974 76.5223 5.84146 76.7583 5.84146L77.8593 5.99319V10.2415C77.8593 12.9725 79.4322 13.6553 81.3197 13.6553C81.9489 13.6553 82.6567 13.5794 83.2859 13.5035C83.5218 13.5035 83.6791 13.3518 83.6791 13.1242V11.2277C83.6791 11.0001 83.5218 10.8484 83.2859 10.8484H82.4208C82.0276 10.8484 82.0276 10.6966 82.0276 10.3173V5.99319H83.3645C83.6005 5.99319 83.7578 5.84146 83.7578 5.61388V3.48974C83.7578 3.26215 83.6005 3.11043 83.3645 3.11043Z" fill="#323232"/>
<path d="M36.1771 6.37246C27.7619 6.37246 26.8182 4.0966 18.7963 4.40005C9.6734 4.77936 4.40413 12.4414 3.38173 13.5035C2.67392 14.1863 1.80882 14.7173 0.943714 15.1725C0.865069 15.1725 0.865068 15.2483 0.786422 15.3242C0.62913 15.5518 0.707777 15.8552 0.943714 15.9311L1.02236 16.0069C1.101 16.0828 1.2583 16.0828 1.33694 16.0828C1.96611 15.9311 2.67392 15.7794 3.30309 15.7794C5.42653 15.5518 11.7182 18.4345 19.976 17.6C28.2338 16.7656 31.8515 8.19315 31.8515 8.19315L35.9411 8.80005C36.1771 8.80005 36.3344 8.64832 36.413 8.42074L36.6489 6.9035C36.6489 6.9035 36.6489 6.9035 36.6489 6.82763C36.6489 6.60005 36.4916 6.37246 36.1771 6.37246ZM13.8416 8.80005C14.3135 7.8897 15.0213 7.20694 15.9651 6.82763L17.1448 7.13108L17.0661 8.34488C17.0661 8.34488 16.9875 8.34488 16.9875 8.42074L15.1 10.469L14.0776 10.3932L13.6843 9.40695C13.6843 9.25522 13.763 9.02763 13.8416 8.80005ZM20.8411 14.6414C19.7401 15.3242 18.4817 15.5518 17.2234 15.3242L16.5156 14.5656L16.8302 13.1242L19.5828 12.5173L21.1557 13.7311L20.8411 14.6414ZM13.9989 10.5449L15.0213 10.6207L16.5156 12.9725C16.5156 12.9725 16.5156 13.0483 16.5942 13.0483L16.2797 14.4897H15.2573C14.2349 13.8069 13.6057 12.7449 13.4484 11.5311L13.9989 10.5449ZM21.313 13.5035L19.7401 12.2897L19.976 9.63453L21.8635 8.95177L22.8859 9.55867C23.2005 10.6207 23.1218 11.7587 22.5713 12.8207C22.4927 12.8966 22.4927 12.9725 22.414 13.0483L21.313 13.5035ZM19.8974 9.48281C19.8974 9.48281 19.8974 9.40695 19.8974 9.48281L17.2234 8.34488L17.3807 7.05522C17.3807 7.05522 17.3807 7.05522 17.4593 7.05522L18.4817 6.2966C18.4817 6.2966 18.4817 6.2966 18.5604 6.2966H18.639C19.8187 6.37246 20.9198 6.82763 21.7849 7.66212L21.8635 8.80005L19.8974 9.48281ZM13.9989 7.35867C13.6843 7.73798 13.3698 8.11729 13.1338 8.4966C12.5047 9.71039 12.3474 11.1518 12.8192 12.5173C13.2911 13.8069 14.2349 14.7932 15.4145 15.4759C10.6958 15.0966 6.29163 13.7311 6.29163 13.7311C6.29163 13.7311 9.28017 9.40695 13.9989 7.35867ZM21.6276 14.9449C22.2567 14.4897 22.8073 13.8828 23.2005 13.2C23.8297 11.9863 23.9869 10.5449 23.5151 9.17936C23.0432 7.8897 22.0994 6.9035 20.9198 6.2966C27.0541 6.2966 29.4922 7.96557 29.4922 7.96557C29.4922 7.96557 26.425 13.2759 21.6276 14.9449Z" fill="#323232"/>
<path d="M103.341 2.95862C102.161 2.95862 100.981 3.1862 99.8803 3.48965C99.6444 3.56551 99.4871 3.71724 99.4871 3.94482V5.91724C99.4871 5.9931 99.4871 5.9931 99.4871 6.06896C99.4871 6.22069 99.723 6.37241 99.8803 6.29655C100.352 6.22069 101.925 6.22069 103.183 6.22069C103.262 6.22069 103.341 6.22069 103.419 6.22069C103.813 6.22069 104.127 6.6 104.127 7.05517V7.43448H103.655C100.588 7.43448 98.7006 8.04138 98.7006 10.2414V10.5448C98.7006 13.0483 100.431 13.8069 101.768 13.8069C102.712 13.8069 103.655 13.5034 104.363 12.8965V13.2759C104.363 13.5034 104.52 13.6552 104.756 13.6552H107.824C108.059 13.6552 108.217 13.5034 108.217 13.2759V7.13103C108.217 3.71724 106.093 2.95862 103.341 2.95862ZM104.284 10.7724C103.97 10.8483 103.655 10.9241 103.341 10.9241C103.262 10.9241 103.262 10.9241 103.183 10.9241C102.869 10.9241 102.554 10.6207 102.633 10.3172V10.0897C102.633 10.0138 102.633 10.0138 102.633 9.93793C102.712 9.48275 103.183 9.17931 103.655 9.25517H104.206L104.284 10.7724Z" fill="#323232"/>
<path d="M50.1758 0.455186C48.9174 0.303462 47.6591 0.2276 46.4008 0.2276C44.0414 0.2276 41.3674 0.758636 41.3674 4.32415V13.0483C41.3674 13.2759 41.5247 13.4276 41.7607 13.4276H45.3784C45.6143 13.4276 45.7716 13.2759 45.7716 13.0483V8.4207H50.1758C50.4117 8.4207 50.569 8.26898 50.569 8.04139V5.53795C50.569 5.31036 50.4117 5.15864 50.1758 5.15864H45.7716V4.24829C45.7716 3.79312 45.9289 3.71726 46.4008 3.71726H50.1758C50.4117 3.71726 50.569 3.56553 50.569 3.33795V0.682774C50.569 0.606912 50.4117 0.455186 50.1758 0.455186Z" fill="#323232"/>
<path d="M44.1202 18.2827H42.7046C42.5473 18.2827 42.4687 18.2827 42.4687 18.3586C42.39 18.4345 42.39 18.5103 42.39 18.5862V19.2689H43.8843V19.8H42.39V21.3931H41.6822V18.4345C41.6822 18.2069 41.7609 18.0552 41.9182 17.9034C42.0755 17.7517 42.2327 17.6758 42.5473 17.6758C43.3338 17.6758 43.8843 17.6758 44.1989 17.7517L44.1202 18.2827Z" fill="black"/>
<path d="M47.2661 17.6C47.8953 17.6 48.2885 17.7518 48.5244 17.9793C48.7604 18.2828 48.839 18.738 48.839 19.4966C48.839 20.2552 48.7604 20.7104 48.5244 21.0138C48.2885 21.3173 47.8953 21.3931 47.2661 21.3931C46.6369 21.3931 46.2437 21.2414 46.0078 21.0138C45.7718 20.7104 45.6932 20.2552 45.6932 19.4966C45.6932 18.738 45.7718 18.2828 46.0078 17.9793C46.2437 17.7518 46.7156 17.6 47.2661 17.6ZM47.2661 18.2069C46.9515 18.2069 46.7156 18.2828 46.6369 18.5104C46.5583 18.738 46.401 19.0414 46.401 19.5724C46.401 20.1035 46.4796 20.4069 46.5583 20.6345C46.7156 20.8621 46.8729 20.938 47.1874 20.938C47.502 20.938 47.738 20.8621 47.8953 20.6345C48.0526 20.4069 48.0526 20.1035 48.0526 19.5724C48.0526 19.0414 47.9739 18.738 47.8953 18.5104C47.8166 18.2828 47.5807 18.2069 47.2661 18.2069Z" fill="black"/>
<path d="M52.1422 17.6C52.7713 17.6 53.1646 17.7518 53.4005 17.9793C53.6364 18.2828 53.7151 18.738 53.7151 19.4966C53.7151 20.2552 53.6364 20.7104 53.4005 21.0138C53.1646 21.3173 52.7713 21.3931 52.1422 21.3931C51.513 21.3931 51.1198 21.2414 50.8838 21.0138C50.6479 20.7104 50.5692 20.2552 50.5692 19.4966C50.5692 18.738 50.6479 18.2828 50.8838 17.9793C51.1984 17.7518 51.5916 17.6 52.1422 17.6ZM52.1422 18.2069C51.8276 18.2069 51.5916 18.2828 51.513 18.5104C51.4343 18.738 51.3557 19.0414 51.3557 19.5724C51.3557 20.1035 51.4343 20.4069 51.513 20.6345C51.6703 20.8621 51.8276 20.938 52.1422 20.938C52.4568 20.938 52.6927 20.8621 52.85 20.6345C53.0073 20.4069 53.0073 20.1035 53.0073 19.5724C53.0073 19.0414 52.9286 18.738 52.85 18.5104C52.6927 18.2828 52.4568 18.2069 52.1422 18.2069Z" fill="black"/>
<path d="M58.2768 18.2827H57.0972V21.3931H56.3893V18.2827H55.2097V17.6758H58.2768V18.2827Z" fill="black"/>
<path d="M61.9732 19.4966C62.2878 19.5724 62.4451 19.6483 62.6023 19.8C62.7596 19.9518 62.7596 20.1793 62.7596 20.4828C62.7596 20.8621 62.681 21.0897 62.4451 21.2414C62.2091 21.3931 61.8945 21.469 61.5013 21.469C60.7935 21.469 60.3216 21.469 59.9284 21.3931V17.6759C60.243 17.6759 60.7149 17.6 61.2654 17.6C61.7373 17.6 62.1305 17.6759 62.2878 17.8276C62.4451 17.9793 62.6023 18.2069 62.6023 18.5862C62.6023 18.8897 62.5237 19.0414 62.4451 19.1931C62.3664 19.3449 62.2091 19.4207 61.9732 19.4966ZM60.6362 19.269H61.344C61.58 19.269 61.7373 19.269 61.8159 19.1931C61.8945 19.1173 61.9732 18.9656 61.9732 18.738C61.9732 18.5104 61.8945 18.4345 61.8159 18.3587C61.7373 18.2828 61.58 18.2069 61.2654 18.2069H60.6362V19.269ZM60.6362 20.938H61.344C61.58 20.938 61.8159 20.938 61.8945 20.8621C61.9732 20.7862 62.0518 20.6345 62.0518 20.4069C62.0518 20.1793 61.9732 20.0276 61.8945 19.8759C61.8159 19.7242 61.6586 19.7242 61.344 19.7242H60.6362V20.938Z" fill="black"/>
<path d="M66.613 20.331H65.1974L64.8828 21.3931H64.175L65.3547 17.8276C65.3547 17.6758 65.4333 17.6758 65.5906 17.6758H66.2984C66.4557 17.6758 66.5344 17.7517 66.5344 17.8276L67.7141 21.3931H67.0062L66.613 20.331ZM66.4557 19.8L66.0625 18.5103C65.9838 18.2827 65.9838 18.2069 65.9838 18.2069H65.8265L65.7479 18.5103L65.3547 19.8H66.4557Z" fill="black"/>
<path d="M69.9162 17.6758V20.5586C69.9162 20.7103 69.9162 20.7862 69.9949 20.7862C70.0735 20.8621 70.1522 20.8621 70.2308 20.8621H71.5678V21.3931C71.1746 21.3931 70.7027 21.4689 70.0735 21.4689C69.523 21.4689 69.2084 21.2414 69.2084 20.7103V17.7517L69.9162 17.6758Z" fill="black"/>
<path d="M73.9268 17.6758V20.5586C73.9268 20.7103 73.9268 20.7862 74.0055 20.7862C74.0841 20.8621 74.1628 20.8621 74.2414 20.8621H75.5784V21.3931C75.1852 21.3931 74.7133 21.4689 74.0841 21.4689C73.5336 21.4689 73.219 21.2414 73.219 20.7103V17.7517L73.9268 17.6758Z" fill="black"/>
<path d="M80.2187 21.3931H79.5109V17.6758H80.2187V21.3931Z" fill="black"/>
<path d="M83.6004 19.9518L82.814 19.7242C82.4994 19.6483 82.3421 19.4966 82.1848 19.3449C82.0275 19.1931 82.0275 18.9656 82.0275 18.6621C82.0275 18.2828 82.1061 17.9793 82.3421 17.8276C82.4994 17.6759 82.8926 17.6 83.3645 17.6C83.8364 17.6 84.2296 17.6759 84.5442 17.7518L84.4655 18.2069C84.0723 18.2069 83.6791 18.2069 83.2858 18.2069C83.0499 18.2069 82.8926 18.2069 82.7353 18.2828C82.6567 18.3587 82.578 18.4345 82.578 18.6621C82.578 18.8138 82.578 18.8897 82.6567 18.9656C82.7353 19.0414 82.814 19.1173 82.9713 19.1173L83.6791 19.3449C83.9937 19.4207 84.1509 19.5724 84.3082 19.7242C84.3869 19.8759 84.4655 20.1035 84.4655 20.4069C84.4655 20.7862 84.3869 21.0897 84.1509 21.2414C83.915 21.3931 83.6004 21.469 83.0499 21.469C82.6567 21.469 82.1848 21.3931 81.7916 21.3173L81.8702 20.7862C82.4994 20.7862 82.8926 20.7862 83.1285 20.7862C83.3645 20.7862 83.5218 20.7862 83.6791 20.7104C83.7577 20.6345 83.8364 20.5587 83.8364 20.3311C83.8364 20.1793 83.8364 20.0276 83.7577 20.0276C83.8364 20.0276 83.7577 20.0276 83.6004 19.9518Z" fill="black"/>
<path d="M91.9367 17.6759V21.1655C91.9367 21.3173 91.858 21.3931 91.7007 21.3931H91.1502C90.9929 21.3931 90.9143 21.3173 90.8356 21.1655L89.7346 18.8897C89.5773 18.5862 89.4986 18.4345 89.4986 18.3587H89.42C89.42 18.5104 89.42 18.6621 89.42 18.8897V21.3931H88.7122V17.9035C88.7122 17.7518 88.7908 17.6759 88.9481 17.6759H89.4986C89.5773 17.6759 89.6559 17.6759 89.6559 17.7518C89.7346 17.7518 89.7346 17.8276 89.7346 17.9035L90.757 20.1035C90.757 20.1035 90.8356 20.1793 90.8356 20.3311C90.9143 20.4828 90.9143 20.5587 90.9929 20.6345H91.0716C91.0716 20.4069 91.0716 20.1793 91.0716 20.0276V17.6L91.9367 17.6759Z" fill="black"/>
<path d="M95.3974 17.6C96.0266 17.6 96.4198 17.7518 96.6557 17.9793C96.8917 18.2069 96.9703 18.738 96.9703 19.4966C96.9703 20.2552 96.8917 20.7104 96.6557 21.0138C96.4198 21.3173 96.0266 21.3931 95.3974 21.3931C94.7682 21.3931 94.375 21.2414 94.139 21.0138C93.9031 20.7862 93.8245 20.2552 93.8245 19.4966C93.8245 18.738 93.9031 18.2828 94.139 17.9793C94.375 17.6759 94.7682 17.6 95.3974 17.6ZM95.3974 18.2069C95.0828 18.2069 94.8469 18.2828 94.7682 18.5104C94.6109 18.738 94.6109 19.0414 94.6109 19.5724C94.6109 20.1035 94.6896 20.4069 94.7682 20.6345C94.9255 20.8621 95.0828 20.938 95.3974 20.938C95.712 20.938 95.9479 20.8621 96.1052 20.6345C96.2625 20.4069 96.2625 20.1035 96.2625 19.5724C96.2625 19.0414 96.1838 18.738 96.1052 18.5104C95.9479 18.2828 95.712 18.2069 95.3974 18.2069Z" fill="black"/>
<path d="M101.532 18.2827H100.352V21.3931H99.6443V18.2827H98.4646V17.6758H101.532V18.2827Z" fill="black"/>
<path d="M106.408 17.6758V20.5586C106.408 20.862 106.329 21.0896 106.172 21.2414C106.015 21.3931 105.858 21.4689 105.543 21.4689C105.307 21.4689 105.071 21.4689 104.914 21.3931L104.992 20.9379H105.228C105.464 20.9379 105.622 20.8621 105.622 20.6345V17.7517H106.408V17.6758Z" fill="black"/>
<path d="M111.284 17.6758V19.9517C111.284 20.4827 111.205 20.9379 110.969 21.1655C110.733 21.3931 110.419 21.5448 109.868 21.5448C109.318 21.5448 108.924 21.3931 108.689 21.1655C108.453 20.9379 108.374 20.5586 108.374 19.9517V17.6758H109.082V19.9517C109.082 20.331 109.16 20.5586 109.239 20.7103C109.318 20.862 109.554 20.9379 109.868 20.9379C110.183 20.9379 110.34 20.862 110.497 20.7103C110.576 20.5586 110.655 20.331 110.655 19.9517V17.6758H111.284Z" fill="black"/>
<path d="M114.666 19.9518L113.879 19.7242C113.565 19.6483 113.407 19.4966 113.25 19.3449C113.093 19.1931 113.093 18.9656 113.093 18.6621C113.093 18.2828 113.171 17.9793 113.407 17.8276C113.564 17.6759 113.958 17.6 114.43 17.6C114.901 17.6 115.295 17.6759 115.609 17.7518V18.2069C115.216 18.2069 114.823 18.2069 114.43 18.2069C114.194 18.2069 114.036 18.2069 113.879 18.2828C113.8 18.3587 113.722 18.4345 113.722 18.6621C113.722 18.8138 113.722 18.8897 113.8 18.9656C113.879 19.0414 113.958 19.1173 114.115 19.1173L114.823 19.3449C115.137 19.4207 115.295 19.5724 115.452 19.7242C115.531 19.8759 115.609 20.1035 115.609 20.4069C115.609 20.7862 115.531 21.0897 115.295 21.2414C115.059 21.3931 114.744 21.469 114.194 21.469C113.8 21.469 113.329 21.3931 112.935 21.3173L113.014 20.7862C113.643 20.7862 114.036 20.7862 114.272 20.7862C114.508 20.7862 114.666 20.7862 114.823 20.7104C114.901 20.6345 114.98 20.5587 114.98 20.3311C114.98 20.1793 114.98 20.0276 114.901 20.0276C114.901 20.0276 114.823 20.0276 114.666 19.9518Z" fill="black"/>
<path d="M120.328 18.2827H119.148V21.3931H118.441V18.2827H117.261V17.6758H120.328V18.2827Z" fill="black"/>
<path d="M126.07 20.331H124.654L124.339 21.3931H123.632L124.811 17.8276C124.811 17.6758 124.89 17.6758 125.047 17.6758H125.755C125.912 17.6758 125.991 17.7517 125.991 17.8276L127.171 21.3931H126.463L126.07 20.331ZM125.912 19.8L125.519 18.5103C125.44 18.2827 125.44 18.2069 125.44 18.2069H125.283L125.204 18.5103L124.811 19.8H125.912Z" fill="black"/>
<path d="M133.698 19.2689V21.3931H133.148L133.069 21.0138C132.754 21.3172 132.361 21.4689 131.968 21.4689C131.575 21.4689 131.26 21.3172 131.024 21.0138C130.788 20.7103 130.71 20.1793 130.71 19.5724C130.71 18.8138 130.867 18.3586 131.103 18.0552C131.339 17.7517 131.811 17.6758 132.44 17.6758C132.833 17.6758 133.226 17.7517 133.541 17.8276L133.462 18.3586C133.069 18.3586 132.754 18.3586 132.44 18.3586C132.204 18.3586 132.047 18.3586 131.968 18.4345C131.889 18.4345 131.732 18.5103 131.653 18.5862C131.575 18.6621 131.496 18.8138 131.496 18.9655C131.496 19.1172 131.417 19.4207 131.417 19.7241C131.417 20.2552 131.496 20.5586 131.575 20.7862C131.653 21.0138 131.889 21.0896 132.125 21.0896C132.361 21.0896 132.676 21.0138 132.912 20.8621V19.4965H133.698V19.2689Z" fill="black"/>
<path d="M137.63 20.331H136.215L135.9 21.3931H135.192L136.372 17.8276C136.372 17.6758 136.451 17.6758 136.608 17.6758H137.316C137.473 17.6758 137.552 17.7517 137.552 17.8276L138.731 21.3931H138.023L137.63 20.331ZM137.473 19.8L137.08 18.5103C137.001 18.2827 137.001 18.2069 137.001 18.2069H136.844L136.765 18.5103L136.372 19.8H137.473Z" fill="black"/>
<path d="M143.293 17.6758H144.001C144.158 17.6758 144.237 17.7517 144.237 17.9034L144.394 21.3172H143.686L143.529 18.131H143.45L142.821 20.6345C142.742 20.7862 142.664 20.862 142.506 20.862H141.956C141.799 20.862 141.72 20.7862 141.641 20.6345L140.933 18.131H140.855L140.697 21.3172H139.99L140.147 17.9034C140.147 17.7517 140.226 17.6758 140.383 17.6758H141.091C141.248 17.6758 141.327 17.7517 141.405 17.9034L141.956 19.9517C141.956 19.9517 142.034 20.1793 142.034 20.4827H142.113C142.192 20.2552 142.192 20.1034 142.192 19.9517L142.742 17.9793C143.057 17.7517 143.136 17.6758 143.293 17.6758Z" fill="black"/>
<path d="M148.798 20.8621V21.3931C148.484 21.3931 147.933 21.4689 147.068 21.4689C146.832 21.4689 146.596 21.3931 146.439 21.3172C146.281 21.1655 146.203 21.0138 146.203 20.7862V18.4345C146.203 18.2069 146.281 18.0552 146.439 17.9034C146.596 17.7517 146.753 17.7517 147.068 17.7517C147.854 17.7517 148.405 17.7517 148.798 17.8276V18.3586H147.304C147.225 18.3586 147.147 18.3586 147.068 18.4345C146.989 18.5103 146.989 18.5862 146.989 18.6621V19.3448H148.562V19.7241H146.989V20.5586C146.989 20.7103 146.989 20.7862 147.068 20.7862C147.147 20.8621 147.147 20.8621 147.304 20.8621H148.798Z" fill="black"/>
</svg>
