<svg width="159" height="30" viewBox="0 0 159 30" fill="none" xmlns="http://www.w3.org/2000/svg">
<g filter="url(#filter0_d)">
<path d="M154.214 5.68959V3.262C154.214 3.18614 154.214 3.18614 154.214 3.11028C154.135 2.95855 153.978 2.88269 153.82 2.88269H153.742C152.798 2.88269 151.933 3.262 151.304 3.94476V3.41373C151.304 3.18614 151.146 3.03442 150.91 3.03442H147.843C147.607 3.03442 147.45 3.18614 147.45 3.41373V13.0482C147.45 13.2758 147.686 13.4275 147.843 13.4275H151.225C151.461 13.4275 151.618 13.2758 151.618 13.0482V6.37235C152.247 6.14476 153.034 5.99304 153.742 6.0689H153.899C153.978 6.0689 153.978 6.0689 154.056 6.0689C154.135 6.0689 154.292 5.91717 154.214 5.68959Z" fill="#EC1F27"/>
<path d="M73.9164 2.95862C70.6919 2.95862 68.8044 4.55172 68.8044 7.88965V8.72413C68.8044 12.1379 70.7706 13.6552 73.9164 13.6552C77.1409 13.6552 79.0284 12.0621 79.0284 8.72413V7.88965C79.107 4.47586 77.1409 2.95862 73.9164 2.95862ZM74.9388 8.72413C74.9388 10.0897 74.5456 10.469 73.9164 10.469C73.2873 10.469 72.894 10.0897 72.894 8.72413V7.88965C72.894 6.52414 73.2873 6.14482 73.9164 6.14482C74.5456 6.14482 74.9388 6.52414 74.9388 7.88965V8.72413Z" fill="#EC1F27"/>
<path d="M140.214 2.95862C137.069 2.95862 135.024 4.55172 135.024 7.88965V8.95172C135.024 12.2138 137.226 13.6552 140.057 13.6552C141.551 13.6552 142.967 13.4276 144.304 12.9724C144.54 12.8965 144.697 12.669 144.697 12.4414V10.6207C144.697 10.3172 144.54 10.3172 144.304 10.3172C143.675 10.3931 141.63 10.469 140.765 10.469C139.507 10.469 139.192 10.2414 139.192 9.33103H144.854C145.09 9.33103 145.248 9.17931 145.248 8.95172V7.88965C145.248 4.85517 143.675 2.95862 140.214 2.95862ZM139.192 7.35862C139.192 6.52413 139.507 5.91724 140.214 5.91724C141.079 5.91724 141.237 6.52413 141.315 7.35862H139.192Z" fill="#EC1F27"/>
<path d="M121.811 3.262C121.811 3.18614 121.811 3.18614 121.811 3.11028C121.733 2.95855 121.576 2.88269 121.418 2.88269H121.34C120.396 2.88269 119.531 3.262 118.902 3.94476V3.41373C118.902 3.18614 118.744 3.03442 118.508 3.03442H115.441C115.205 3.03442 115.048 3.18614 115.048 3.41373V13.0482C115.048 13.2758 115.284 13.4275 115.441 13.4275H118.823C119.059 13.4275 119.216 13.2758 119.216 13.0482V6.37235C119.845 6.14476 120.632 5.99304 121.34 6.0689H121.497C121.576 6.0689 121.576 6.0689 121.654 6.0689C121.811 5.99304 121.969 5.84131 121.89 5.68959L121.811 3.262Z" fill="#EC1F27"/>
<path d="M128.339 2.95862C125.193 2.95862 123.148 4.55172 123.148 7.88965V8.95172C123.148 12.2138 125.351 13.6552 128.182 13.6552C129.676 13.6552 131.092 13.4276 132.429 12.9724C132.665 12.8965 132.822 12.669 132.822 12.4414V10.6207C132.822 10.3172 132.665 10.3172 132.429 10.3172C131.799 10.3931 129.755 10.469 128.89 10.469C127.631 10.469 127.317 10.2414 127.317 9.33103H132.979C133.215 9.33103 133.372 9.17931 133.372 8.95172V7.88965C133.294 4.85517 131.799 2.95862 128.339 2.95862ZM127.317 7.35862C127.317 6.52413 127.631 5.91724 128.339 5.91724C129.204 5.91724 129.44 6.52413 129.44 7.35862H127.317Z" fill="#EC1F27"/>
<path d="M61.8833 2.95862C58.6588 2.95862 56.7713 4.55172 56.7713 7.88965V8.72413C56.7713 12.1379 58.7374 13.6552 61.8833 13.6552C65.1078 13.6552 66.9953 12.0621 66.9953 8.72413V7.88965C66.9953 4.47586 65.1078 2.95862 61.8833 2.95862ZM62.9057 8.72413C62.9057 10.0897 62.5911 10.469 61.8833 10.469C61.1755 10.469 60.8609 10.0897 60.8609 8.72413V7.88965C60.8609 6.52414 61.2541 6.14482 61.8833 6.14482C62.5124 6.14482 62.9057 6.52414 62.9057 7.88965V8.72413Z" fill="#EC1F27"/>
<path d="M97.9031 3.86894C98.6896 3.86894 99.5547 4.02067 99.9479 4.02067C100.027 4.02067 100.105 4.02067 100.105 4.02067C100.262 3.9448 100.341 3.86894 100.262 3.71722V0.986182C100.262 0.758596 100.184 0.682734 99.8693 0.606872C99.0828 0.379286 98.2177 0.227563 97.4312 0.303426C93.3417 0.303426 91.4542 2.42756 91.4542 6.29653V7.73791C91.4542 11.6069 93.4203 13.731 97.4312 13.731C98.2963 13.731 99.0828 13.6551 99.8693 13.4276C100.184 13.3517 100.262 13.2758 100.262 13.0483V10.2414C100.262 9.93791 100.184 9.86204 99.8693 9.93791C99.1614 10.0138 98.5323 10.0896 97.8245 10.0896C96.6448 10.0896 95.8583 9.86205 95.8583 7.73791V6.29653C95.937 4.24825 96.7234 3.86894 97.9031 3.86894Z" fill="#EC1F27"/>
<path d="M87.3645 3.11043H86.0276V1.13801C86.0276 1.06215 86.0276 1.06215 86.0276 0.986289C85.9489 0.834565 85.7916 0.682842 85.6343 0.758704L82.2526 1.28974C82.0166 1.28974 81.8593 1.44146 81.8593 1.66905V3.11043H80.7583C80.5223 3.11043 80.3651 3.26215 80.3651 3.48974V5.46215C80.3651 5.68974 80.5223 5.84146 80.7583 5.84146L81.8593 5.99319V10.2415C81.8593 12.9725 83.4322 13.6553 85.3197 13.6553C85.9489 13.6553 86.6567 13.5794 87.2859 13.5035C87.5218 13.5035 87.6791 13.3518 87.6791 13.1242V11.2277C87.6791 11.0001 87.5218 10.8484 87.2859 10.8484H86.4208C86.0276 10.8484 86.0276 10.6966 86.0276 10.3173V5.99319H87.3645C87.6005 5.99319 87.7578 5.84146 87.7578 5.61388V3.48974C87.7578 3.26215 87.6005 3.11043 87.3645 3.11043Z" fill="#EC1F27"/>
<path d="M40.1771 6.37246C31.7619 6.37246 30.8182 4.0966 22.7963 4.40005C13.6734 4.77936 8.40413 12.4414 7.38173 13.5035C6.67392 14.1863 5.80882 14.7173 4.94371 15.1725C4.86507 15.1725 4.86507 15.2483 4.78642 15.3242C4.62913 15.5518 4.70778 15.8552 4.94371 15.9311L5.02236 16.0069C5.101 16.0828 5.2583 16.0828 5.33694 16.0828C5.96611 15.9311 6.67392 15.7794 7.30309 15.7794C9.42653 15.5518 15.7182 18.4345 23.976 17.6C32.2338 16.7656 35.8515 8.19315 35.8515 8.19315L39.9411 8.80005C40.1771 8.80005 40.3344 8.64832 40.413 8.42074L40.6489 6.9035C40.6489 6.9035 40.6489 6.9035 40.6489 6.82763C40.6489 6.60005 40.4916 6.37246 40.1771 6.37246ZM17.8416 8.80005C18.3135 7.8897 19.0213 7.20694 19.9651 6.82763L21.1448 7.13108L21.0661 8.34488C21.0661 8.34488 20.9875 8.34488 20.9875 8.42074L19.1 10.469L18.0776 10.3932L17.6843 9.40695C17.6843 9.25522 17.763 9.02763 17.8416 8.80005ZM24.8411 14.6414C23.7401 15.3242 22.4817 15.5518 21.2234 15.3242L20.5156 14.5656L20.8302 13.1242L23.5828 12.5173L25.1557 13.7311L24.8411 14.6414ZM17.9989 10.5449L19.0213 10.6207L20.5156 12.9725C20.5156 12.9725 20.5156 13.0483 20.5942 13.0483L20.2797 14.4897H19.2573C18.2349 13.8069 17.6057 12.7449 17.4484 11.5311L17.9989 10.5449ZM25.313 13.5035L23.7401 12.2897L23.976 9.63453L25.8635 8.95177L26.8859 9.55867C27.2005 10.6207 27.1218 11.7587 26.5713 12.8207C26.4927 12.8966 26.4927 12.9725 26.414 13.0483L25.313 13.5035ZM23.8974 9.48281C23.8974 9.48281 23.8974 9.40695 23.8974 9.48281L21.2234 8.34488L21.3807 7.05522C21.3807 7.05522 21.3807 7.05522 21.4593 7.05522L22.4817 6.2966C22.4817 6.2966 22.4817 6.2966 22.5604 6.2966H22.639C23.8187 6.37246 24.9198 6.82763 25.7849 7.66212L25.8635 8.80005L23.8974 9.48281ZM17.9989 7.35867C17.6843 7.73798 17.3698 8.11729 17.1338 8.4966C16.5047 9.71039 16.3474 11.1518 16.8192 12.5173C17.2911 13.8069 18.2349 14.7932 19.4145 15.4759C14.6958 15.0966 10.2916 13.7311 10.2916 13.7311C10.2916 13.7311 13.2802 9.40695 17.9989 7.35867ZM25.6276 14.9449C26.2567 14.4897 26.8073 13.8828 27.2005 13.2C27.8297 11.9863 27.9869 10.5449 27.5151 9.17936C27.0432 7.8897 26.0994 6.9035 24.9198 6.2966C31.0541 6.2966 33.4922 7.96557 33.4922 7.96557C33.4922 7.96557 30.425 13.2759 25.6276 14.9449Z" fill="#EC1F27"/>
<path d="M107.341 2.95862C106.161 2.95862 104.981 3.1862 103.88 3.48965C103.644 3.56551 103.487 3.71724 103.487 3.94482V5.91724C103.487 5.9931 103.487 5.9931 103.487 6.06896C103.487 6.22069 103.723 6.37241 103.88 6.29655C104.352 6.22069 105.925 6.22069 107.183 6.22069C107.262 6.22069 107.341 6.22069 107.419 6.22069C107.813 6.22069 108.127 6.6 108.127 7.05517V7.43448H107.655C104.588 7.43448 102.701 8.04138 102.701 10.2414V10.5448C102.701 13.0483 104.431 13.8069 105.768 13.8069C106.712 13.8069 107.655 13.5034 108.363 12.8965V13.2759C108.363 13.5034 108.52 13.6552 108.756 13.6552H111.824C112.059 13.6552 112.217 13.5034 112.217 13.2759V7.13103C112.217 3.71724 110.093 2.95862 107.341 2.95862ZM108.284 10.7724C107.97 10.8483 107.655 10.9241 107.341 10.9241C107.262 10.9241 107.262 10.9241 107.183 10.9241C106.869 10.9241 106.554 10.6207 106.633 10.3172V10.0897C106.633 10.0138 106.633 10.0138 106.633 9.93793C106.712 9.48275 107.183 9.17931 107.655 9.25517H108.206L108.284 10.7724Z" fill="#EC1F27"/>
<path d="M54.1758 0.455186C52.9174 0.303462 51.6591 0.2276 50.4008 0.2276C48.0414 0.2276 45.3674 0.758636 45.3674 4.32415V13.0483C45.3674 13.2759 45.5247 13.4276 45.7607 13.4276H49.3784C49.6143 13.4276 49.7716 13.2759 49.7716 13.0483V8.4207H54.1758C54.4117 8.4207 54.569 8.26898 54.569 8.04139V5.53795C54.569 5.31036 54.4117 5.15864 54.1758 5.15864H49.7716V4.24829C49.7716 3.79312 49.9289 3.71726 50.4008 3.71726H54.1758C54.4117 3.71726 54.569 3.56553 54.569 3.33795V0.682774C54.569 0.606912 54.4117 0.455186 54.1758 0.455186Z" fill="#EC1F27"/>
<path d="M48.1202 18.2827H46.7046C46.5473 18.2827 46.4686 18.2827 46.4686 18.3586C46.39 18.4345 46.39 18.5103 46.39 18.5862V19.2689H47.8843V19.8H46.39V21.3931H45.6822V18.4345C45.6822 18.2069 45.7608 18.0552 45.9181 17.9034C46.0754 17.7517 46.2327 17.6758 46.5473 17.6758C47.3337 17.6758 47.8843 17.6758 48.1988 17.7517L48.1202 18.2827Z" fill="#EC1F27"/>
<path d="M51.2661 17.6C51.8953 17.6 52.2885 17.7518 52.5244 17.9793C52.7604 18.2828 52.839 18.738 52.839 19.4966C52.839 20.2552 52.7604 20.7104 52.5244 21.0138C52.2885 21.3173 51.8953 21.3931 51.2661 21.3931C50.6369 21.3931 50.2437 21.2414 50.0078 21.0138C49.7718 20.7104 49.6932 20.2552 49.6932 19.4966C49.6932 18.738 49.7718 18.2828 50.0078 17.9793C50.2437 17.7518 50.7156 17.6 51.2661 17.6ZM51.2661 18.2069C50.9515 18.2069 50.7156 18.2828 50.6369 18.5104C50.5583 18.738 50.401 19.0414 50.401 19.5724C50.401 20.1035 50.4796 20.4069 50.5583 20.6345C50.7156 20.8621 50.8729 20.938 51.1874 20.938C51.502 20.938 51.738 20.8621 51.8953 20.6345C52.0526 20.4069 52.0526 20.1035 52.0526 19.5724C52.0526 19.0414 51.9739 18.738 51.8953 18.5104C51.8166 18.2828 51.5807 18.2069 51.2661 18.2069Z" fill="#EC1F27"/>
<path d="M56.1422 17.6C56.7714 17.6 57.1646 17.7518 57.4005 17.9793C57.6365 18.2828 57.7151 18.738 57.7151 19.4966C57.7151 20.2552 57.6365 20.7104 57.4005 21.0138C57.1646 21.3173 56.7714 21.3931 56.1422 21.3931C55.513 21.3931 55.1198 21.2414 54.8839 21.0138C54.6479 20.7104 54.5693 20.2552 54.5693 19.4966C54.5693 18.738 54.6479 18.2828 54.8839 17.9793C55.1984 17.7518 55.5917 17.6 56.1422 17.6ZM56.1422 18.2069C55.8276 18.2069 55.5917 18.2828 55.513 18.5104C55.4344 18.738 55.3557 19.0414 55.3557 19.5724C55.3557 20.1035 55.4344 20.4069 55.513 20.6345C55.6703 20.8621 55.8276 20.938 56.1422 20.938C56.4568 20.938 56.6927 20.8621 56.85 20.6345C57.0073 20.4069 57.0073 20.1035 57.0073 19.5724C57.0073 19.0414 56.9287 18.738 56.85 18.5104C56.6927 18.2828 56.4568 18.2069 56.1422 18.2069Z" fill="#EC1F27"/>
<path d="M62.2768 18.2827H61.0972V21.3931H60.3893V18.2827H59.2097V17.6758H62.2768V18.2827Z" fill="#EC1F27"/>
<path d="M65.9732 19.4966C66.2878 19.5724 66.4451 19.6483 66.6023 19.8C66.7596 19.9518 66.7596 20.1793 66.7596 20.4828C66.7596 20.8621 66.681 21.0897 66.4451 21.2414C66.2091 21.3931 65.8945 21.469 65.5013 21.469C64.7935 21.469 64.3216 21.469 63.9284 21.3931V17.6759C64.243 17.6759 64.7149 17.6 65.2654 17.6C65.7373 17.6 66.1305 17.6759 66.2878 17.8276C66.4451 17.9793 66.6023 18.2069 66.6023 18.5862C66.6023 18.8897 66.5237 19.0414 66.4451 19.1931C66.3664 19.3449 66.2091 19.4207 65.9732 19.4966ZM64.6362 19.269H65.344C65.58 19.269 65.7373 19.269 65.8159 19.1931C65.8945 19.1173 65.9732 18.9656 65.9732 18.738C65.9732 18.5104 65.8945 18.4345 65.8159 18.3587C65.7373 18.2828 65.58 18.2069 65.2654 18.2069H64.6362V19.269ZM64.6362 20.938H65.344C65.58 20.938 65.8159 20.938 65.8945 20.8621C65.9732 20.7862 66.0518 20.6345 66.0518 20.4069C66.0518 20.1793 65.9732 20.0276 65.8945 19.8759C65.8159 19.7242 65.6586 19.7242 65.344 19.7242H64.6362V20.938Z" fill="#EC1F27"/>
<path d="M70.613 20.331H69.1974L68.8828 21.3931H68.175L69.3547 17.8276C69.3547 17.6758 69.4333 17.6758 69.5906 17.6758H70.2984C70.4557 17.6758 70.5344 17.7517 70.5344 17.8276L71.7141 21.3931H71.0062L70.613 20.331ZM70.4557 19.8L70.0625 18.5103C69.9838 18.2827 69.9838 18.2069 69.9838 18.2069H69.8265L69.7479 18.5103L69.3547 19.8H70.4557Z" fill="#EC1F27"/>
<path d="M73.9162 17.6758V20.5586C73.9162 20.7103 73.9162 20.7862 73.9949 20.7862C74.0735 20.8621 74.1522 20.8621 74.2308 20.8621H75.5678V21.3931C75.1746 21.3931 74.7027 21.4689 74.0735 21.4689C73.523 21.4689 73.2084 21.2414 73.2084 20.7103V17.7517L73.9162 17.6758Z" fill="#EC1F27"/>
<path d="M77.9269 17.6758V20.5586C77.9269 20.7103 77.9269 20.7862 78.0055 20.7862C78.0842 20.8621 78.1628 20.8621 78.2415 20.8621H79.5784V21.3931C79.1852 21.3931 78.7133 21.4689 78.0842 21.4689C77.5336 21.4689 77.2191 21.2414 77.2191 20.7103V17.7517L77.9269 17.6758Z" fill="#EC1F27"/>
<path d="M84.2187 21.3931H83.5109V17.6758H84.2187V21.3931Z" fill="#EC1F27"/>
<path d="M87.6004 19.9518L86.814 19.7242C86.4994 19.6483 86.3421 19.4966 86.1848 19.3449C86.0275 19.1931 86.0275 18.9656 86.0275 18.6621C86.0275 18.2828 86.1061 17.9793 86.3421 17.8276C86.4994 17.6759 86.8926 17.6 87.3645 17.6C87.8364 17.6 88.2296 17.6759 88.5442 17.7518L88.4655 18.2069C88.0723 18.2069 87.6791 18.2069 87.2858 18.2069C87.0499 18.2069 86.8926 18.2069 86.7353 18.2828C86.6567 18.3587 86.578 18.4345 86.578 18.6621C86.578 18.8138 86.578 18.8897 86.6567 18.9656C86.7353 19.0414 86.814 19.1173 86.9713 19.1173L87.6791 19.3449C87.9937 19.4207 88.1509 19.5724 88.3082 19.7242C88.3869 19.8759 88.4655 20.1035 88.4655 20.4069C88.4655 20.7862 88.3869 21.0897 88.1509 21.2414C87.915 21.3931 87.6004 21.469 87.0499 21.469C86.6567 21.469 86.1848 21.3931 85.7916 21.3173L85.8702 20.7862C86.4994 20.7862 86.8926 20.7862 87.1285 20.7862C87.3645 20.7862 87.5218 20.7862 87.6791 20.7104C87.7577 20.6345 87.8364 20.5587 87.8364 20.3311C87.8364 20.1793 87.8364 20.0276 87.7577 20.0276C87.8364 20.0276 87.7577 20.0276 87.6004 19.9518Z" fill="#EC1F27"/>
<path d="M95.9367 17.6759V21.1655C95.9367 21.3173 95.8581 21.3931 95.7008 21.3931H95.1502C94.9929 21.3931 94.9143 21.3173 94.8357 21.1655L93.7346 18.8897C93.5773 18.5862 93.4987 18.4345 93.4987 18.3587H93.42C93.42 18.5104 93.42 18.6621 93.42 18.8897V21.3931H92.7122V17.9035C92.7122 17.7518 92.7909 17.6759 92.9482 17.6759H93.4987C93.5773 17.6759 93.656 17.6759 93.656 17.7518C93.7346 17.7518 93.7346 17.8276 93.7346 17.9035L94.757 20.1035C94.757 20.1035 94.8357 20.1793 94.8357 20.3311C94.9143 20.4828 94.9143 20.5587 94.9929 20.6345H95.0716C95.0716 20.4069 95.0716 20.1793 95.0716 20.0276V17.6L95.9367 17.6759Z" fill="#EC1F27"/>
<path d="M99.3974 17.6C100.027 17.6 100.42 17.7518 100.656 17.9793C100.892 18.2069 100.97 18.738 100.97 19.4966C100.97 20.2552 100.892 20.7104 100.656 21.0138C100.42 21.3173 100.027 21.3931 99.3974 21.3931C98.7682 21.3931 98.375 21.2414 98.139 21.0138C97.9031 20.7862 97.8245 20.2552 97.8245 19.4966C97.8245 18.738 97.9031 18.2828 98.139 17.9793C98.375 17.6759 98.7682 17.6 99.3974 17.6ZM99.3974 18.2069C99.0828 18.2069 98.8469 18.2828 98.7682 18.5104C98.6109 18.738 98.6109 19.0414 98.6109 19.5724C98.6109 20.1035 98.6896 20.4069 98.7682 20.6345C98.9255 20.8621 99.0828 20.938 99.3974 20.938C99.712 20.938 99.9479 20.8621 100.105 20.6345C100.262 20.4069 100.262 20.1035 100.262 19.5724C100.262 19.0414 100.184 18.738 100.105 18.5104C99.9479 18.2828 99.712 18.2069 99.3974 18.2069Z" fill="#EC1F27"/>
<path d="M105.532 18.2827H104.352V21.3931H103.644V18.2827H102.465V17.6758H105.532V18.2827Z" fill="#EC1F27"/>
<path d="M110.408 17.6758V20.5586C110.408 20.862 110.329 21.0896 110.172 21.2414C110.015 21.3931 109.858 21.4689 109.543 21.4689C109.307 21.4689 109.071 21.4689 108.914 21.3931L108.992 20.9379H109.228C109.464 20.9379 109.622 20.8621 109.622 20.6345V17.7517H110.408V17.6758Z" fill="#EC1F27"/>
<path d="M115.284 17.6758V19.9517C115.284 20.4827 115.205 20.9379 114.969 21.1655C114.733 21.3931 114.419 21.5448 113.868 21.5448C113.318 21.5448 112.924 21.3931 112.689 21.1655C112.453 20.9379 112.374 20.5586 112.374 19.9517V17.6758H113.082V19.9517C113.082 20.331 113.16 20.5586 113.239 20.7103C113.318 20.862 113.554 20.9379 113.868 20.9379C114.183 20.9379 114.34 20.862 114.497 20.7103C114.576 20.5586 114.655 20.331 114.655 19.9517V17.6758H115.284Z" fill="#EC1F27"/>
<path d="M118.666 19.9518L117.879 19.7242C117.564 19.6483 117.407 19.4966 117.25 19.3449C117.093 19.1931 117.093 18.9656 117.093 18.6621C117.093 18.2828 117.171 17.9793 117.407 17.8276C117.564 17.6759 117.958 17.6 118.43 17.6C118.901 17.6 119.295 17.6759 119.609 17.7518V18.2069C119.216 18.2069 118.823 18.2069 118.43 18.2069C118.194 18.2069 118.036 18.2069 117.879 18.2828C117.8 18.3587 117.722 18.4345 117.722 18.6621C117.722 18.8138 117.722 18.8897 117.8 18.9656C117.879 19.0414 117.958 19.1173 118.115 19.1173L118.823 19.3449C119.137 19.4207 119.295 19.5724 119.452 19.7242C119.531 19.8759 119.609 20.1035 119.609 20.4069C119.609 20.7862 119.531 21.0897 119.295 21.2414C119.059 21.3931 118.744 21.469 118.194 21.469C117.8 21.469 117.329 21.3931 116.935 21.3173L117.014 20.7862C117.643 20.7862 118.036 20.7862 118.272 20.7862C118.508 20.7862 118.666 20.7862 118.823 20.7104C118.901 20.6345 118.98 20.5587 118.98 20.3311C118.98 20.1793 118.98 20.0276 118.901 20.0276C118.901 20.0276 118.823 20.0276 118.666 19.9518Z" fill="#EC1F27"/>
<path d="M124.328 18.2827H123.148V21.3931H122.441V18.2827H121.261V17.6758H124.328V18.2827Z" fill="#EC1F27"/>
<path d="M130.07 20.331H128.654L128.339 21.3931H127.632L128.811 17.8276C128.811 17.6758 128.89 17.6758 129.047 17.6758H129.755C129.912 17.6758 129.991 17.7517 129.991 17.8276L131.171 21.3931H130.463L130.07 20.331ZM129.912 19.8L129.519 18.5103C129.44 18.2827 129.44 18.2069 129.44 18.2069H129.283L129.204 18.5103L128.811 19.8H129.912Z" fill="#EC1F27"/>
<path d="M137.698 19.2689V21.3931H137.148L137.069 21.0138C136.754 21.3172 136.361 21.4689 135.968 21.4689C135.575 21.4689 135.26 21.3172 135.024 21.0138C134.788 20.7103 134.71 20.1793 134.71 19.5724C134.71 18.8138 134.867 18.3586 135.103 18.0552C135.339 17.7517 135.811 17.6758 136.44 17.6758C136.833 17.6758 137.226 17.7517 137.541 17.8276L137.462 18.3586C137.069 18.3586 136.754 18.3586 136.44 18.3586C136.204 18.3586 136.047 18.3586 135.968 18.4345C135.889 18.4345 135.732 18.5103 135.653 18.5862C135.575 18.6621 135.496 18.8138 135.496 18.9655C135.496 19.1172 135.417 19.4207 135.417 19.7241C135.417 20.2552 135.496 20.5586 135.575 20.7862C135.653 21.0138 135.889 21.0896 136.125 21.0896C136.361 21.0896 136.676 21.0138 136.912 20.8621V19.4965H137.698V19.2689Z" fill="#EC1F27"/>
<path d="M141.63 20.331H140.215L139.9 21.3931H139.192L140.372 17.8276C140.372 17.6758 140.451 17.6758 140.608 17.6758H141.316C141.473 17.6758 141.552 17.7517 141.552 17.8276L142.731 21.3931H142.023L141.63 20.331ZM141.473 19.8L141.08 18.5103C141.001 18.2827 141.001 18.2069 141.001 18.2069H140.844L140.765 18.5103L140.372 19.8H141.473Z" fill="#EC1F27"/>
<path d="M147.293 17.6758H148.001C148.158 17.6758 148.237 17.7517 148.237 17.9034L148.394 21.3172H147.686L147.529 18.131H147.45L146.821 20.6345C146.742 20.7862 146.664 20.862 146.506 20.862H145.956C145.799 20.862 145.72 20.7862 145.641 20.6345L144.933 18.131H144.855L144.697 21.3172H143.99L144.147 17.9034C144.147 17.7517 144.226 17.6758 144.383 17.6758H145.091C145.248 17.6758 145.327 17.7517 145.405 17.9034L145.956 19.9517C145.956 19.9517 146.034 20.1793 146.034 20.4827H146.113C146.192 20.2552 146.192 20.1034 146.192 19.9517L146.742 17.9793C147.057 17.7517 147.136 17.6758 147.293 17.6758Z" fill="#EC1F27"/>
<path d="M152.798 20.8621V21.3931C152.484 21.3931 151.933 21.4689 151.068 21.4689C150.832 21.4689 150.596 21.3931 150.439 21.3172C150.281 21.1655 150.203 21.0138 150.203 20.7862V18.4345C150.203 18.2069 150.281 18.0552 150.439 17.9034C150.596 17.7517 150.753 17.7517 151.068 17.7517C151.854 17.7517 152.405 17.7517 152.798 17.8276V18.3586H151.304C151.225 18.3586 151.147 18.3586 151.068 18.4345C150.989 18.5103 150.989 18.5862 150.989 18.6621V19.3448H152.562V19.7241H150.989V20.5586C150.989 20.7103 150.989 20.7862 151.068 20.7862C151.147 20.8621 151.147 20.8621 151.304 20.8621H152.798Z" fill="#EC1F27"/>
</g>
<defs>
<filter id="filter0_d" x="0" y="0" width="159" height="30" filterUnits="userSpaceOnUse" color-interpolation-filters="sRGB">
<feFlood flood-opacity="0" result="BackgroundImageFix"/>
<feColorMatrix in="SourceAlpha" type="matrix" values="0 0 0 0 0 0 0 0 0 0 0 0 0 0 0 0 0 0 127 0"/>
<feOffset dy="4"/>
<feGaussianBlur stdDeviation="2"/>
<feColorMatrix type="matrix" values="0 0 0 0 0 0 0 0 0 0 0 0 0 0 0 0 0 0 0.25 0"/>
<feBlend mode="normal" in2="BackgroundImageFix" result="effect1_dropShadow"/>
<feBlend mode="normal" in="SourceGraphic" in2="effect1_dropShadow" result="shape"/>
</filter>
</defs>
</svg>
