<svg width="138" height="25" viewBox="0 0 138 25" fill="none" xmlns="http://www.w3.org/2000/svg">
<path d="M83.7409 4.83464V11.2596H84.4309C86.25 11.2596 87.1282 9.66924 87.1282 7.88807C87.1282 6.1069 86.4382 4.77102 84.7445 4.70741C84.4309 4.70741 83.9918 4.70741 83.7409 4.83464ZM63.6681 2.03565L61.5354 1.97204V5.66161H57.3327V23.9822L63.6681 23.855V2.03565ZM78.2209 23.6005V2.48095L74.7709 2.41733V5.34354H69.2509V9.92369H74.52V14.5675H69.2509V20.1018H75.21V23.6642L78.2209 23.6005ZM42.8427 24.3003L51.75 24.1094V5.66161H47.5472V1.52675L45.9163 1.46313L45.1636 5.91606C44.4736 5.47077 43.4072 5.08909 42.0272 5.08909C40.1454 5.08909 39.2672 6.04329 39.2672 7.18833C39.2672 8.26975 39.7691 8.9695 42.5291 10.4962C45.8536 12.4046 46.9827 15.0128 46.9827 17.4937C46.9827 20.6743 45.4145 23.028 42.8427 24.3003ZM106.323 23.028C104.88 21.2469 104.315 18.5115 104.315 15.0764V3.30792L91.4563 2.92624C92.46 4.1985 92.7736 5.59799 92.7736 7.44278C92.7736 9.86008 91.5818 12.341 89.1354 13.486V13.5496C90.7036 14.2494 91.5191 15.7125 91.9582 18.1298C92.2718 19.7201 92.6482 21.7558 93.0245 23.2825L95.7845 23.2189C95.5963 22.7736 95.5336 22.2647 95.5336 21.6921C95.5336 19.5929 97.0391 18.0662 98.67 18.0662C100.364 18.0662 101.806 19.4021 101.806 21.6921C101.806 22.201 101.744 22.71 101.618 23.0916L106.323 23.028ZM129.03 5.59799C128.779 7.12471 128.403 9.86008 128.215 11.196L127.525 15.8397H130.473L129.845 11.196C129.657 9.79647 129.344 7.12471 129.155 5.59799H129.03Z" fill="#484848"/>
<path d="M33.9355 24.4911C33.81 24.4275 33.6218 24.3639 33.5591 24.3003L34.2491 19.402C35.3155 19.9746 37.0718 20.3562 38.4518 20.3562C40.5218 20.3562 41.4627 19.402 41.4627 18.1934C41.4627 16.6667 40.4591 15.9669 38.3264 14.6947C34.3745 12.341 33.7473 9.6056 33.7473 7.82443C33.7473 5.08906 34.9391 2.60814 37.4482 1.27226L31.3636 1.01781V5.34351H25.8436V9.92366H31.1127V14.5674H25.8436V20.1018H31.8027V24.4911H33.9355ZM111.78 20.3562C112.846 20.3562 113.662 19.6565 113.662 16.1578V3.62595L109.898 3.49873V16.1578C109.898 19.402 110.776 20.3562 111.78 20.3562ZM86.5009 19.2112C86.1245 16.285 85.4973 15.5852 84.2427 15.5852H83.6782V23.4733L87.1909 23.4097L86.5009 19.2112ZM130.849 20.1654H126.897L126.521 22.5827L130.724 22.5191L131.1 21.6285L130.849 20.1654ZM125.078 4.00763L119.245 3.81679V15.1399C119.245 18.4478 118.617 20.9924 117.3 22.7735L121.189 22.7099L125.078 4.00763ZM138 4.38931L133.295 4.26209L134.801 12.4682L138 4.38931ZM0 0L6.33545 22.5191V0.19084L0 0ZM11.9182 0.381679V20.229H17.8773V24.8092L20.2609 24.7455V0.636132" fill="#484848"/>
</svg>
