<svg width="20" height="22" viewBox="0 0 20 22" fill="none" xmlns="http://www.w3.org/2000/svg">
<path d="M18.5296 13.5592L16.9025 11.9321L9.58078 4.61069C8.2314 3.27141 6.05322 3.27545 4.70889 4.61978C3.36457 5.96411 3.36052 8.14228 4.6998 9.49166L12.0212 16.8152C12.3206 17.1149 12.8064 17.1149 13.106 16.8152C13.4054 16.5156 13.4054 16.0301 13.106 15.7304L5.78459 8.40687C5.0358 7.65808 5.0358 6.44427 5.78459 5.69548C6.53339 4.94669 7.74719 4.94669 8.49598 5.69548L15.8196 13.0169L17.4467 14.6438C18.7947 15.9923 18.7942 18.1783 17.4458 19.5261C16.0973 20.874 13.9115 20.8736 12.5635 19.5251L11.2079 18.169L3.61518 10.5763L3.07269 10.034C1.17662 8.07862 1.20071 4.96353 3.12659 3.03748C5.05264 1.1116 8.16773 1.08751 10.1231 2.98358L18.2581 11.1188C18.452 11.3124 18.7344 11.3881 18.999 11.3172C19.2637 11.2463 19.4706 11.0396 19.5415 10.7749C19.6124 10.5101 19.5366 10.2278 19.3429 10.034L11.2079 1.89896C8.66019 -0.637107 4.54047 -0.632391 1.99868 1.90957C-0.54328 4.45136 -0.547996 8.57108 1.98807 11.1188L10.1231 19.2538L11.4807 20.6099C13.4386 22.4905 16.5414 22.4591 18.4607 20.5392C20.3802 18.6193 20.4107 15.5165 18.5296 13.5592Z" fill="#161616"/>
</svg>
